<svg width="25" height="24" viewBox="0 0 25 24" fill="none" xmlns="http://www.w3.org/2000/svg">
<g id="Frame">
<path id="Vector" d="M12.5 22C18.0228 22 22.5 17.5228 22.5 12C22.5 6.47715 18.0228 2 12.5 2C6.97715 2 2.5 6.47715 2.5 12C2.5 17.5228 6.97715 22 12.5 22Z" stroke="#94A3B8" stroke-width="2"/>
<path id="Vector_2" d="M8 17C10.3317 14.5578 14.6432 14.4428 17 17M14.9951 9.5C14.9951 10.8807 13.8742 12 12.4915 12C11.1089 12 9.98797 10.8807 9.98797 9.5C9.98797 8.11929 11.1089 7 12.4915 7C13.8742 7 14.9951 8.11929 14.9951 9.5Z" stroke="#94A3B8" stroke-width="2" stroke-linecap="round"/>
</g>
</svg>
