<svg width="25" height="24" viewBox="0 0 25 24" fill="none" xmlns="http://www.w3.org/2000/svg">
<g id="Frame">
<path id="Vector" d="M20.5 14H16.5C15.3954 14 14.5 14.8954 14.5 16V20C14.5 21.1046 15.3954 22 16.5 22H20.5C21.6046 22 22.5 21.1046 22.5 20V16C22.5 14.8954 21.6046 14 20.5 14Z" stroke="#94A3B8" stroke-width="2" stroke-linecap="round" stroke-linejoin="round"/>
<path id="Vector_2" d="M8.5 2H4.5C3.39543 2 2.5 2.89543 2.5 4V8C2.5 9.10457 3.39543 10 4.5 10H8.5C9.60457 10 10.5 9.10457 10.5 8V4C10.5 2.89543 9.60457 2 8.5 2Z" stroke="#94A3B8" stroke-width="2" stroke-linecap="round" stroke-linejoin="round"/>
<path id="Vector_3" d="M7.5 14V15C7.5 15.5304 7.71071 16.0391 8.08579 16.4142C8.46086 16.7893 8.96957 17 9.5 17H10.5" stroke="#94A3B8" stroke-width="2" stroke-linecap="round" stroke-linejoin="round"/>
<path id="Vector_4" d="M14.5 7H15.5C16.0304 7 16.5391 7.21071 16.9142 7.58579C17.2893 7.96086 17.5 8.46957 17.5 9V10" stroke="#94A3B8" stroke-width="2" stroke-linecap="round" stroke-linejoin="round"/>
</g>
</svg>
