<svg width="25" height="24" viewBox="0 0 25 24" fill="none" xmlns="http://www.w3.org/2000/svg">
<g id="Frame">
<path id="Vector" d="M16.5 14C16.5 14.8284 17.1716 15.5 18 15.5C18.8284 15.5 19.5 14.8284 19.5 14C19.5 13.1716 18.8284 12.5 18 12.5C17.1716 12.5 16.5 13.1716 16.5 14Z" stroke="#94A3B8" stroke-width="2"/>
<path id="Vector_2" d="M10.5 7H16.5C19.3284 7 20.7426 7 21.6213 7.87868C22.5 8.75736 22.5 10.1716 22.5 13V15C22.5 17.8284 22.5 19.2426 21.6213 20.1213C20.7426 21 19.3284 21 16.5 21H10.5C6.72876 21 4.84315 21 3.67157 19.8284C2.5 18.6569 2.5 16.7712 2.5 13V11C2.5 7.22876 2.5 5.34315 3.67157 4.17157C4.84315 3 6.72876 3 10.5 3H14.5C15.43 3 15.895 3 16.2765 3.10222C17.3117 3.37962 18.1204 4.18827 18.3978 5.22354C18.5 5.60504 18.5 6.07003 18.5 7" stroke="#94A3B8" stroke-width="2" stroke-linecap="round"/>
</g>
</svg>
