<svg width="212" height="48" viewBox="0 0 212 48" fill="none" xmlns="http://www.w3.org/2000/svg">
<g clip-path="url(#clip0_2725_2273)">
<path fill-rule="evenodd" clip-rule="evenodd" d="M18 33.6C16.4087 33.6 14.8826 32.9679 13.7574 31.8426C12.6321 30.7174 12 29.1913 12 27.6V0H0V27.6C0 37.5408 8.0592 45.6 18 45.6H31.2V33.6H18ZM54 12C52.5817 12 51.1773 12.2794 49.867 12.8221C48.5567 13.3649 47.3661 14.1604 46.3632 15.1632C45.3604 16.1661 44.5648 17.3567 44.0221 18.667C43.4793 19.9773 43.2 21.3817 43.2 22.8C43.2 24.2183 43.4793 25.6227 44.0221 26.933C44.5648 28.2433 45.3604 29.4339 46.3632 30.4368C47.3661 31.4396 48.5567 32.2351 49.867 32.7779C51.1773 33.3207 52.5817 33.6 54 33.6C56.8643 33.6 59.6114 32.4621 61.6367 30.4368C63.6621 28.4114 64.8 25.6643 64.8 22.8C64.8 19.9357 63.6621 17.1886 61.6367 15.1632C59.6114 13.1379 56.8643 12 54 12ZM31.2 22.8C31.2 10.2084 41.4084 0 54 0C66.5916 0 76.8 10.2084 76.8 22.8C76.8 35.3916 66.5916 45.6 54 45.6C41.4084 45.6 31.2 35.3916 31.2 22.8ZM183.6 12C180.736 12 177.989 13.1379 175.963 15.1632C173.938 17.1886 172.8 19.9357 172.8 22.8C172.8 25.6643 173.938 28.4114 175.963 30.4368C177.989 32.4621 180.736 33.6 183.6 33.6C186.464 33.6 189.211 32.4621 191.237 30.4368C193.262 28.4114 194.4 25.6643 194.4 22.8C194.4 19.9357 193.262 17.1886 191.237 15.1632C189.211 13.1379 186.464 12 183.6 12ZM160.8 22.8C160.8 10.2084 171.008 0 183.6 0C196.192 0 206.4 10.2084 206.4 22.8C206.4 35.3916 196.192 45.6 183.6 45.6C171.008 45.6 160.8 35.3916 160.8 22.8ZM102 0C89.4084 0 79.2 10.2084 79.2 22.8C79.2 35.3916 89.4084 45.6 102 45.6H135.6C137.963 45.6 140.242 45.24 142.385 44.5728L148.8 48L155.722 35.0352C157.48 31.7348 158.4 28.0527 158.4 24.3132V22.8C158.4 10.2084 148.192 0 135.6 0H102ZM146.4 22.8C146.4 19.9357 145.262 17.1886 143.237 15.1632C141.211 13.1379 138.464 12 135.6 12H102C100.582 12 99.1773 12.2794 97.867 12.8221C96.5567 13.3649 95.3661 14.1604 94.3632 15.1632C93.3604 16.1661 92.5648 17.3567 92.0221 18.667C91.4793 19.9773 91.2 21.3817 91.2 22.8C91.2 24.2183 91.4793 25.6227 92.0221 26.933C92.5648 28.2433 93.3604 29.4339 94.3632 30.4368C95.3661 31.4396 96.5567 32.2351 97.867 32.7779C99.1773 33.3207 100.582 33.6 102 33.6H135.6C138.45 33.6001 141.184 32.4738 143.207 30.4665C145.23 28.4592 146.378 25.7338 146.4 22.884V22.8Z" fill="white"/>
<path d="M211.2 3C211.2 3.79565 210.884 4.55871 210.321 5.12132C209.759 5.68393 208.996 6 208.2 6C207.404 6 206.641 5.68393 206.079 5.12132C205.516 4.55871 205.2 3.79565 205.2 3C205.2 2.20435 205.516 1.44129 206.079 0.87868C206.641 0.316071 207.404 0 208.2 0C208.996 0 209.759 0.316071 210.321 0.87868C210.884 1.44129 211.2 2.20435 211.2 3Z" fill="white"/>
</g>
<defs>
<clipPath id="clip0_2725_2273">
<rect width="211.2" height="48" fill="white"/>
</clipPath>
</defs>
</svg>
