<svg width="20" height="20" viewBox="0 0 20 20" fill="none" xmlns="http://www.w3.org/2000/svg">
<path fill-rule="evenodd" clip-rule="evenodd" d="M4.94752 1.875C4.96628 1.875 4.98509 1.87501 5.00399 1.87501L15.0523 1.875C15.7889 1.87496 16.4269 1.87492 16.9383 1.94635C17.4902 2.02342 18.0159 2.19759 18.439 2.63708C18.8578 3.07212 19.0197 3.60516 19.0918 4.16301C19.1598 4.68788 19.1598 5.34486 19.1598 6.11449V6.16814C19.1598 6.37866 19.1616 6.58093 19.1633 6.77354C19.1679 7.27561 19.1718 7.71213 19.1412 8.05845C19.0935 8.59617 18.9536 9.0965 18.5303 9.53625C18.2111 9.86784 17.6835 9.87792 17.352 9.55867C17.0204 9.2395 17.0103 8.712 17.3296 8.38042C17.394 8.31347 17.4523 8.2342 17.481 7.91125C17.5041 7.65038 17.5013 7.33884 17.4972 6.88917C17.4953 6.68124 17.4931 6.44378 17.4931 6.16814C17.4931 5.32996 17.4914 4.78206 17.439 4.37694C17.3893 3.99263 17.3073 3.86459 17.2383 3.79296C17.1736 3.72577 17.063 3.6466 16.7078 3.597C16.3253 3.54358 15.8053 3.54168 14.9958 3.54168H5.00399C4.1945 3.54168 3.67444 3.54358 3.29196 3.59699C2.93681 3.6466 2.82618 3.72577 2.76149 3.79295C2.69253 3.86459 2.61053 3.99263 2.56079 4.37694C2.50835 4.78206 2.50671 5.32996 2.50671 6.16814C2.50671 6.44522 2.5045 6.68371 2.50257 6.89239C2.49841 7.34044 2.49554 7.65113 2.51854 7.91153C2.54707 8.23456 2.60539 8.31364 2.66967 8.38042C2.98885 8.712 2.97882 9.2395 2.64724 9.55867C2.31568 9.87792 1.78814 9.86784 1.46895 9.53625C1.04547 9.09634 0.905828 8.59584 0.858336 8.05818C0.82781 7.71263 0.831808 7.27704 0.836403 6.77619C0.838178 6.58276 0.840044 6.3796 0.840044 6.16814C0.840044 6.15019 0.840044 6.13231 0.840044 6.11449C0.840003 5.34485 0.839978 4.68788 0.907911 4.16301C0.980111 3.60516 1.14198 3.07212 1.56078 2.63708C1.98385 2.19759 2.5096 2.02342 3.06143 1.94635C3.57289 1.87492 4.21083 1.87496 4.94752 1.875Z" fill="#E2E8F0"/>
<path fill-rule="evenodd" clip-rule="evenodd" d="M11.8315 5.20837H8.16912C7.5351 5.20836 7.0022 5.20834 6.572 5.26173C6.11583 5.31835 5.70039 5.44221 5.34122 5.74292C4.98204 6.04364 4.78707 6.43085 4.65116 6.86995C4.52296 7.28408 4.42931 7.80865 4.31787 8.43279L3.75934 11.5606C3.52343 12.8815 3.33447 13.9396 3.3049 14.7775C3.27434 15.643 3.40738 16.3897 3.92352 17.0061C4.43965 17.6226 5.15127 17.8849 6.00874 18.0069C6.83871 18.125 7.91351 18.125 9.25541 18.125H10.7452C12.087 18.125 13.1618 18.125 13.9918 18.0069C14.8492 17.8849 15.5609 17.6226 16.0771 17.0061C16.5932 16.3897 16.7262 15.643 16.6957 14.7775C16.6661 13.9396 16.4772 12.8816 16.2412 11.5606L15.6827 8.43279C15.5712 7.80863 15.4776 7.28407 15.3494 6.86995C15.2135 6.43085 15.0185 6.04364 14.6593 5.74292C14.3002 5.44221 13.8847 5.31835 13.4286 5.26173C12.9983 5.20834 12.4655 5.20836 11.8315 5.20837ZM10.625 8.33337C10.625 7.9882 10.3452 7.70837 10 7.70837C9.65483 7.70837 9.375 7.9882 9.375 8.33337V8.81946H7.91667C7.57149 8.81946 7.29167 9.09929 7.29167 9.44446C7.29167 9.78962 7.57149 10.0695 7.91667 10.0695H8.07292V13.264H7.91667C7.57149 13.264 7.29167 13.5438 7.29167 13.889C7.29167 14.2341 7.57149 14.514 7.91667 14.514H9.375V15C9.375 15.3452 9.65483 15.625 10 15.625C10.3452 15.625 10.625 15.3452 10.625 15V14.514H11.3021C12.1161 14.514 12.7083 13.8224 12.7083 13.0556V12.5C12.7083 12.198 12.6165 11.9077 12.4554 11.6667C12.6165 11.4257 12.7083 11.1354 12.7083 10.8334V10.2778C12.7083 9.51104 12.1161 8.81946 11.3021 8.81946H10.625V8.33337ZM9.32292 11.0417V10.0695H11.3021C11.351 10.0695 11.4583 10.1241 11.4583 10.2778V10.8334C11.4583 10.987 11.351 11.0417 11.3021 11.0417H9.32292ZM9.32292 12.2917H11.3021C11.351 12.2917 11.4583 12.3464 11.4583 12.5V13.0556C11.4583 13.2093 11.351 13.264 11.3021 13.264H9.32292V12.2917Z" fill="#E2E8F0"/>
</svg>
