<svg width="20" height="20" viewBox="0 0 20 20" fill="none" xmlns="http://www.w3.org/2000/svg">
<g opacity="0.8">
<path d="M4.09417 2.215C5.82333 1.99 7.58583 1.875 9.375 1.875C11.1642 1.875 12.9267 1.99083 14.6558 2.215C16.2575 2.42333 17.3983 3.76583 17.4933 5.32083C17.2147 5.22802 16.926 5.16899 16.6333 5.145C14.2985 4.95118 11.9515 4.95118 9.61667 5.145C7.65167 5.30833 6.25 6.97 6.25 8.84V12.4117C6.24921 13.0981 6.43814 13.7715 6.79593 14.3574C7.15372 14.9432 7.66644 15.4188 8.2775 15.7317L6.06667 17.9417C5.97926 18.029 5.86795 18.0884 5.74678 18.1125C5.62561 18.1365 5.50003 18.1242 5.3859 18.0769C5.27176 18.0296 5.17419 17.9496 5.10551 17.8469C5.03682 17.7443 5.00011 17.6235 5 17.5V14.1417C4.69766 14.1095 4.3957 14.074 4.09417 14.035C2.42083 13.8167 1.25 12.3608 1.25 10.7183V5.53167C1.25 3.89 2.42083 2.4325 4.09417 2.215Z" fill="#94A3B8"/>
<path d="M13.125 6.25C11.9783 6.25 10.8425 6.2975 9.72 6.39084C8.43667 6.4975 7.5 7.58584 7.5 8.84084V12.4117C7.5 13.6675 8.44 14.7567 9.725 14.8617C10.7608 14.9467 11.8083 14.9925 12.865 14.9992L15.1833 17.3167C15.2707 17.404 15.3821 17.4634 15.5032 17.4875C15.6244 17.5115 15.75 17.4992 15.8641 17.4519C15.9782 17.4046 16.0758 17.3246 16.1445 17.2219C16.2132 17.1193 16.2499 16.9985 16.25 16.875V14.8833L16.525 14.8617C17.81 14.7575 18.75 13.6675 18.75 12.4117V8.84C18.75 7.58584 17.8125 6.4975 16.53 6.39C15.3974 6.29635 14.2614 6.24964 13.125 6.25Z" fill="#94A3B8"/>
</g>
</svg>
