<svg width="20" height="20" viewBox="0 0 20 20" fill="none" xmlns="http://www.w3.org/2000/svg">
<g id="Frame">
<path id="Vector" d="M6.25 2.8125C6.25 1.94917 6.95 1.25 7.8125 1.25H8.125C8.9538 1.25 9.74866 1.57924 10.3347 2.16529C10.9208 2.75134 11.25 3.5462 11.25 4.375V5.9375C11.25 6.80083 11.95 7.5 12.8125 7.5H14.375C15.2038 7.5 15.9987 7.82924 16.5847 8.41529C17.1708 9.00134 17.5 9.7962 17.5 10.625V13.4375C17.5 14.3 16.8 15 15.9375 15H7.8125C7.3981 15 7.00067 14.8354 6.70765 14.5424C6.41462 14.2493 6.25 13.8519 6.25 13.4375V2.8125Z" fill="url(#paint0_linear_2725_6193)"/>
<path id="Vector_2" d="M12.5 4.37497C12.5015 3.32376 12.1229 2.30744 11.4342 1.51331C12.8286 1.87994 14.1006 2.61037 15.1201 3.62988C16.1396 4.64939 16.87 5.9214 17.2367 7.31581C16.4425 6.62704 15.4262 6.24851 14.375 6.24997H12.8125C12.7296 6.24997 12.6501 6.21705 12.5915 6.15844C12.5329 6.09984 12.5 6.02035 12.5 5.93747V4.37497ZM4.0625 4.99997H5V13.4375C5 14.1834 5.29632 14.8988 5.82376 15.4262C6.35121 15.9537 7.06658 16.25 7.8125 16.25H13.75V17.1875C13.75 18.05 13.05 18.75 12.1875 18.75H4.0625C3.6481 18.75 3.25067 18.5854 2.95765 18.2923C2.66462 17.9993 2.5 17.6019 2.5 17.1875V6.56247C2.5 5.69914 3.2 4.99997 4.0625 4.99997Z" fill="url(#paint1_linear_2725_6193)"/>
</g>
<defs>
<linearGradient id="paint0_linear_2725_6193" x1="-13.7187" y1="8.125" x2="13.5063" y2="8.125" gradientUnits="userSpaceOnUse">
<stop stop-color="#007AFF"/>
<stop offset="1" stop-color="#842BE2"/>
</linearGradient>
<linearGradient id="paint1_linear_2725_6193" x1="-23.6576" y1="10.1316" x2="12.0052" y2="10.1316" gradientUnits="userSpaceOnUse">
<stop stop-color="#007AFF"/>
<stop offset="1" stop-color="#842BE2"/>
</linearGradient>
</defs>
</svg>
