<svg width="15" height="15" viewBox="0 0 15 15" fill="none" xmlns="http://www.w3.org/2000/svg">
<path d="M13.5 9C12.6709 9 12 8.32908 12 7.5C12 6.67092 12.6709 6 13.5 6C14.3291 6 15 6.67092 15 7.5C15 8.32908 14.3291 9 13.5 9ZM13.5 3C12.6709 3 12 2.32908 12 1.5C12 0.670922 12.6709 0 13.5 0C14.3291 0 15 0.670922 15 1.5C15 2.32908 14.3291 3 13.5 3ZM7.5 15C6.67088 15 6 14.3291 6 13.5C6 12.6738 6.67092 12 7.5 12C8.32908 12 9 12.6738 9 13.5C9 14.3291 8.32913 15 7.5 15ZM7.5 9C6.67088 9 6 8.32908 6 7.5C6 6.67092 6.67092 6 7.5 6C8.32908 6 9 6.67092 9 7.5C9 8.32908 8.32913 9 7.5 9ZM1.5 15C0.673828 15 0 14.3291 0 13.5C0 12.6738 0.673828 12 1.5 12C2.32912 12 3 12.6738 3 13.5C3 14.3291 2.32912 15 1.5 15ZM13.5 12C14.3291 12 15 12.6738 15 13.5C15 14.3291 14.3291 15 13.5 15C12.6709 15 12 14.3291 12 13.5C12 12.6738 12.6709 12 13.5 12Z" fill="#B0B0B0"/>
</svg>
