<svg width="20" height="20" viewBox="0 0 20 20" fill="none" xmlns="http://www.w3.org/2000/svg">
<path d="M13.3334 18.3333H15C15.4421 18.3333 15.866 18.1577 16.1786 17.8451C16.4911 17.5326 16.6667 17.1087 16.6667 16.6666V5.83329L12.5 1.66663H5.00004C4.55801 1.66663 4.13409 1.84222 3.82153 2.15478C3.50897 2.46734 3.33337 2.89127 3.33337 3.33329V5.83329" stroke="#E2E8F0" stroke-width="1.5" stroke-linecap="round" stroke-linejoin="round"/>
<path d="M11.6666 1.66663V4.99996C11.6666 5.44199 11.8422 5.86591 12.1548 6.17847C12.4673 6.49103 12.8913 6.66663 13.3333 6.66663H16.6666" stroke="#E2E8F0" stroke-width="1.5" stroke-linecap="round" stroke-linejoin="round"/>
<path d="M6.66663 18.3334C9.42805 18.3334 11.6666 16.0948 11.6666 13.3334C11.6666 10.572 9.42805 8.33337 6.66663 8.33337C3.9052 8.33337 1.66663 10.572 1.66663 13.3334C1.66663 16.0948 3.9052 18.3334 6.66663 18.3334Z" stroke="#E2E8F0" stroke-width="1.5" stroke-linecap="round" stroke-linejoin="round"/>
<path d="M7.91663 14.5833L6.66663 13.5416V11.6666" stroke="#E2E8F0" stroke-width="1.5" stroke-linecap="round" stroke-linejoin="round"/>
</svg>
