<svg width="100" height="100" viewBox="0 0 100 100" fill="none" xmlns="http://www.w3.org/2000/svg">
<g clip-path="url(#clip0_2725_2090)">
<path fill-rule="evenodd" clip-rule="evenodd" d="M93.1034 33.2415L97.3966 36.638C99.0388 37.9482 99.9967 39.9337 100 42.0346V93.1035C100 96.9124 96.9123 100 93.1034 100H6.89655C3.08769 100 0 96.9124 0 93.1035V42.0346C0.00328117 39.9337 0.961153 37.9482 2.60345 36.638L6.89655 33.2415H93.1034Z" fill="#F29C1F"/>
<path fill-rule="evenodd" clip-rule="evenodd" d="M6.89648 82.3103V3.44828C6.90217 1.5462 8.44269 0.00568069 10.3448 0H89.6551C91.5572 0.00568069 93.0977 1.5462 93.1034 3.44828V80.5172L6.89648 82.3103Z" fill="#ECF0F1"/>
<path d="M50.0002 55.1723C63.3312 55.1723 74.1382 44.3654 74.1382 31.0344C74.1382 17.7034 63.3312 6.89648 50.0002 6.89648C36.6692 6.89648 25.8623 17.7034 25.8623 31.0344C25.8623 44.3654 36.6692 55.1723 50.0002 55.1723Z" fill="#4FBA6F"/>
<path fill-rule="evenodd" clip-rule="evenodd" d="M44.8278 44.8276C43.913 44.8293 43.0354 44.4656 42.3899 43.8173L35.4934 36.9207C34.1866 35.5677 34.2053 33.417 35.5354 32.0869C36.8655 30.7567 39.0162 30.738 40.3692 32.0448L44.8278 36.5017L59.6313 21.7C60.4971 20.8036 61.7791 20.4441 62.9848 20.7597C64.1904 21.0753 65.1319 22.0168 65.4475 23.2224C65.7631 24.428 65.4036 25.7101 64.5072 26.5759L47.2658 43.8173C46.6203 44.4656 45.7427 44.8293 44.8278 44.8276Z" fill="#ECF0F1"/>
<path fill-rule="evenodd" clip-rule="evenodd" d="M100 42.9482L100 93.1034C100.009 95.0608 99.1729 96.9268 97.7072 98.2241L65.1899 72.9482L100 42.9482Z" fill="#F0C419"/>
<path fill-rule="evenodd" clip-rule="evenodd" d="M97.7068 98.2242C96.4452 99.3658 94.8048 99.9986 93.1033 100H6.89642C5.19495 99.9986 3.55455 99.3658 2.29297 98.2242L34.8102 72.9483L47.8619 62.8104C49.1178 61.8275 50.8819 61.8275 52.1378 62.8104L65.1895 72.9483L97.7068 98.2242Z" fill="#F3D55B"/>
<path fill-rule="evenodd" clip-rule="evenodd" d="M34.8104 72.9482L2.29316 98.2241C0.827421 96.9268 -0.00819873 95.0608 6.06552e-05 93.1034L0 42.9482L34.8104 72.9482Z" fill="#F0C419"/>
</g>
<defs>
<clipPath id="clip0_2725_2090">
<rect width="100" height="100" fill="white"/>
</clipPath>
</defs>
</svg>
