<svg width="20" height="20" viewBox="0 0 20 20" fill="none" xmlns="http://www.w3.org/2000/svg">
<path fill-rule="evenodd" clip-rule="evenodd" d="M6.04175 10.0004C6.04175 10.6487 6.07921 11.2743 6.1463 11.875H1.23828C1.10951 11.2703 1.04175 10.643 1.04175 9.99996C1.04175 9.35688 1.10951 8.72963 1.23828 8.12496H6.14639C6.07924 8.72588 6.04175 9.35179 6.04175 10.0004ZM6.33311 6.87496H1.60189C2.68867 3.9555 5.25421 1.75576 8.388 1.18629C8.24727 1.47233 8.10045 1.78249 7.95192 2.09626L7.95133 2.09753C7.89078 2.22544 7.82995 2.35396 7.76912 2.48168C7.21484 3.64568 6.65921 5.133 6.33311 6.87496ZM7.60658 6.87496H12.3936C12.0866 5.35747 11.5952 4.05369 11.1025 3.01909C11.0284 2.86361 10.9544 2.70643 10.8811 2.55068C10.6111 1.97734 10.3501 1.4231 10.1298 1.04254C10.0867 1.04193 10.0434 1.04163 10.0001 1.04163C9.95675 1.04163 9.9135 1.04193 9.87033 1.04254C9.65008 1.42308 9.38908 1.97727 9.11916 2.55055C9.04583 2.70632 8.97175 2.86361 8.89766 3.01909C8.405 4.05369 7.91359 5.35747 7.60658 6.87496ZM12.5953 8.12496H7.40482C7.33249 8.72404 7.29175 9.35013 7.29175 10.0004C7.29175 10.6504 7.33245 11.2761 7.40472 11.875H12.5954C12.6677 11.2761 12.7084 10.6504 12.7084 10.0004C12.7084 9.35013 12.6677 8.72404 12.5953 8.12496ZM13.6671 6.87496C13.341 5.133 12.7853 3.64568 12.231 2.48168C12.1701 2.35374 12.1092 2.22502 12.0485 2.09689C11.9 1.78313 11.7529 1.47233 11.6122 1.18629C14.7459 1.75576 17.3115 3.9555 18.3982 6.87496H13.6671ZM18.7619 8.12496H13.8537C13.9209 8.72588 13.9584 9.35179 13.9584 10.0004C13.9584 10.6487 13.921 11.2743 13.8538 11.875H18.7619C18.8907 11.2703 18.9584 10.643 18.9584 9.99996C18.9584 9.35688 18.8907 8.72963 18.7619 8.12496ZM8.89766 16.9817C8.40491 15.9469 7.91341 14.6428 7.60641 13.125H12.3937C12.0867 14.6428 11.5952 15.9469 11.1025 16.9817C11.0292 17.1355 10.956 17.291 10.8834 17.445C10.6126 18.02 10.3507 18.5759 10.1298 18.9574C10.0867 18.958 10.0434 18.9583 10.0001 18.9583C9.95675 18.9583 9.9135 18.958 9.87033 18.9574C9.64942 18.5759 9.38758 18.02 9.11675 17.445L9.11633 17.444C9.04383 17.2903 8.97083 17.1352 8.89766 16.9817ZM13.6672 13.125H18.3982C17.3115 16.0444 14.7461 18.244 11.6124 18.8136C11.754 18.526 11.9017 18.2139 12.0512 17.8982C12.1109 17.772 12.171 17.6451 12.231 17.5191C12.7854 16.3549 13.3412 14.8673 13.6672 13.125ZM1.60189 13.125H6.33295C6.65902 14.8673 7.21475 16.3549 7.76912 17.5191C7.82916 17.6451 7.8892 17.772 7.94896 17.8982C8.09841 18.2139 8.24617 18.526 8.38775 18.8136C5.25409 18.244 2.68864 16.0444 1.60189 13.125Z" fill="#94A3B8"/>
</svg>
