<svg width="32" height="32" viewBox="0 0 32 32" fill="none" xmlns="http://www.w3.org/2000/svg">
<rect width="32" height="32" rx="8" fill="#334155"/>
<path d="M15.9998 16.8333C16.4601 16.8333 16.8332 16.4602 16.8332 16C16.8332 15.5397 16.4601 15.1666 15.9998 15.1666C15.5396 15.1666 15.1665 15.5397 15.1665 16C15.1665 16.4602 15.5396 16.8333 15.9998 16.8333Z" stroke="#94A3B8" stroke-width="2" stroke-linecap="round" stroke-linejoin="round"/>
<path d="M15.9998 11C16.4601 11 16.8332 10.6269 16.8332 10.1667C16.8332 9.70647 16.4601 9.33337 15.9998 9.33337C15.5396 9.33337 15.1665 9.70647 15.1665 10.1667C15.1665 10.6269 15.5396 11 15.9998 11Z" stroke="#94A3B8" stroke-width="2" stroke-linecap="round" stroke-linejoin="round"/>
<path d="M15.9998 22.6667C16.4601 22.6667 16.8332 22.2936 16.8332 21.8333C16.8332 21.3731 16.4601 21 15.9998 21C15.5396 21 15.1665 21.3731 15.1665 21.8333C15.1665 22.2936 15.5396 22.6667 15.9998 22.6667Z" stroke="#94A3B8" stroke-width="2" stroke-linecap="round" stroke-linejoin="round"/>
</svg>
