<svg width="80" height="80" viewBox="0 0 80 80" fill="none" xmlns="http://www.w3.org/2000/svg">
<path opacity="0.4" d="M46.8548 9.16667C52.9808 9.1666 57.8328 9.16657 61.6301 9.67713C65.5381 10.2025 68.7014 11.3096 71.1961 13.8041C73.6904 16.2987 74.7974 19.4619 75.3231 23.3699C75.8334 27.1673 75.8334 32.0193 75.8334 38.145V41.8547C75.8334 47.9803 75.8334 52.8327 75.3231 56.63C74.7974 60.538 73.6904 63.7013 71.1961 66.196C68.7014 68.6903 65.5381 69.7973 61.6301 70.323C57.8328 70.8333 52.9808 70.8333 46.8551 70.8333H33.1454C27.0196 70.8333 22.1674 70.8333 18.37 70.323C14.462 69.7973 11.2988 68.6903 8.80422 66.196C6.30968 63.7013 5.20262 60.538 4.67722 56.63C4.16665 52.8327 4.16668 47.9807 4.16675 41.8547V38.1453C4.16668 32.0194 4.16665 27.1673 4.67722 23.3699C5.20262 19.4619 6.30968 16.2987 8.80422 13.8041C11.2988 11.3096 14.462 10.2025 18.37 9.67713C22.1674 9.16657 27.0195 9.1666 33.1453 9.16667H46.8548Z" fill="#94A3B8"/>
<path d="M14.3466 52.4033C18.5807 41.8513 34.4107 40.999 38.9871 52.4033C39.2961 53.1737 39.2027 54.0473 38.7377 54.7347C38.2727 55.4223 37.4967 55.8343 36.6667 55.8343H16.6667C15.8367 55.8343 15.0608 55.4223 14.5958 54.7347C14.1308 54.0473 14.0375 53.1737 14.3466 52.4033Z" fill="#94A3B8"/>
<path d="M20 32.5C20 28.8181 22.9848 25.8333 26.6667 25.8333C30.3486 25.8333 33.3333 28.8181 33.3333 32.5C33.3333 36.182 30.3486 39.1667 26.6667 39.1667C22.9848 39.1667 20 36.182 20 32.5Z" fill="#94A3B8"/>
<path fill-rule="evenodd" clip-rule="evenodd" d="M44.1667 28.3333C44.1667 26.9526 45.2861 25.8333 46.6667 25.8333H63.3334C64.7141 25.8333 65.8334 26.9526 65.8334 28.3333C65.8334 29.714 64.7141 30.8333 63.3334 30.8333H46.6667C45.2861 30.8333 44.1667 29.714 44.1667 28.3333ZM44.1667 40C44.1667 38.6193 45.2861 37.5 46.6667 37.5H63.3334C64.7141 37.5 65.8334 38.6193 65.8334 40C65.8334 41.3807 64.7141 42.5 63.3334 42.5H46.6667C45.2861 42.5 44.1667 41.3807 44.1667 40ZM44.1667 51.6667C44.1667 50.286 45.2861 49.1667 46.6667 49.1667H55.0001C56.3807 49.1667 57.5001 50.286 57.5001 51.6667C57.5001 53.0473 56.3807 54.1667 55.0001 54.1667H46.6667C45.2861 54.1667 44.1667 53.0473 44.1667 51.6667Z" fill="#94A3B8"/>
</svg>
