<?xml version="1.0" standalone="no"?>
<!DOCTYPE svg PUBLIC "-//W3C//DTD SVG 20010904//EN"
 "http://www.w3.org/TR/2001/REC-SVG-20010904/DTD/svg10.dtd">
<svg version="1.0" xmlns="http://www.w3.org/2000/svg"
 width="240.000000pt" height="195.000000pt" viewBox="0 0 240.000000 195.000000"
 preserveAspectRatio="xMidYMid meet">

<g transform="translate(0.000000,195.000000) scale(0.100000,-0.100000)"
fill="#000000" stroke="none">
<path d="M1135 1654 c-180 -24 -313 -91 -433 -219 -123 -131 -176 -271 -176
-460 0 -135 13 -191 72 -315 48 -99 175 -229 277 -282 189 -98 411 -107 601
-23 255 113 421 388 399 665 -24 295 -227 544 -500 613 -65 16 -191 27 -240
21z m197 -65 c29 -6 95 -31 145 -56 128 -62 214 -148 277 -276 74 -151 89
-298 45 -460 -21 -78 -114 -237 -139 -237 -5 0 -43 35 -85 77 l-74 77 38 17
c23 10 40 26 44 40 4 13 7 108 7 211 0 183 0 187 -24 215 l-24 28 -279 3 -278
3 -102 102 c-57 56 -103 104 -103 108 0 12 116 86 177 113 35 15 82 31 105 35
63 13 209 13 270 0z m-461 -366 c-58 -24 -61 -38 -61 -251 l0 -194 29 -29 29
-29 274 0 273 0 104 -104 103 -103 -39 -32 c-56 -47 -168 -99 -248 -116 -267
-56 -535 60 -672 291 -130 218 -116 494 35 696 l36 48 84 -82 83 -83 -30 -12z
m189 -148 l44 -45 -132 0 -132 0 0 45 0 45 88 0 88 0 44 -45z m500 0 l0 -45
-188 0 -188 0 -44 45 -44 45 232 0 232 0 0 -45z m-352 -187 l3 -48 -155 0
-156 0 0 43 c0 24 3 47 7 51 4 3 72 5 152 4 l146 -3 3 -47z m292 37 c0 -12
-18 -15 -99 -15 -75 0 -101 4 -111 15 -11 13 1 15 99 15 92 0 111 -3 111 -15z
m-122 -53 c3 -9 -2 -13 -14 -10 -9 1 -19 9 -22 16 -3 9 2 13 14 10 9 -1 19 -9
22 -16z"/>
<path d="M1225 1421 c-3 -10 -3 -26 1 -35 5 -14 -3 -16 -74 -15 -88 1 -102 -3
-102 -31 0 -25 19 -30 113 -30 63 0 78 -3 69 -12 -18 -18 -15 -36 8 -48 17 -9
27 -4 65 31 25 23 45 49 45 57 0 22 -80 102 -101 102 -10 0 -20 -8 -24 -19z"/>
<path d="M1093 662 c-24 -21 -43 -45 -43 -54 0 -9 19 -35 43 -57 49 -48 82
-52 82 -8 l-1 27 76 0 c78 0 100 9 100 41 0 23 -20 29 -105 29 l-74 0 2 27 c3
42 -30 40 -80 -5z"/>
<path d="M930 890 c0 -19 7 -20 93 -21 50 0 108 -1 127 -2 29 -2 35 2 35 18 0
19 -8 20 -127 23 -123 2 -128 2 -128 -18z"/>
</g>
</svg>
