<svg width="20" height="20" viewBox="0 0 20 20" fill="none" xmlns="http://www.w3.org/2000/svg">
<g id="Frame">
<path id="Vector" d="M17.9979 2.11885C17.6084 1.69936 16.9977 1.54223 16.4142 1.48599C15.8011 1.4269 15.0668 1.4662 14.2762 1.56989C12.6908 1.77785 10.7753 2.25923 8.93533 2.85151C7.09417 3.44417 5.29945 4.15725 3.95538 4.84043C3.28646 5.18044 2.70628 5.52447 2.28451 5.85492C2.07449 6.01947 1.88285 6.19671 1.73869 6.38535C1.60119 6.56528 1.45653 6.82128 1.45852 7.12989C1.46374 7.93996 2.01541 8.51246 2.60289 8.89671C3.20253 9.28896 3.98348 9.58454 4.75984 9.81604C5.54453 10.05 6.36972 10.2314 7.07911 10.3784C7.1256 10.388 7.21852 10.4072 7.33239 10.4307C7.76119 10.5193 7.97559 10.5636 8.17714 10.5033C8.37867 10.443 8.53367 10.288 8.8435 9.97812L11.9109 6.91078C12.2363 6.58535 12.764 6.58535 13.0894 6.91078C13.4148 7.23622 13.4148 7.76387 13.0894 8.0893L10.2289 10.9498C9.913 11.2657 9.75508 11.4236 9.69533 11.6286C9.6355 11.8336 9.68375 12.0512 9.78017 12.4865C10.1538 14.1737 10.4783 15.568 10.8021 16.506C10.9912 17.0538 11.2039 17.528 11.4733 17.8778C11.7545 18.2428 12.137 18.5185 12.6404 18.5408C12.9538 18.5546 13.2144 18.4115 13.3931 18.2787C13.5814 18.1389 13.7585 17.9512 13.9227 17.7461C14.2527 17.3338 14.5995 16.7633 14.9445 16.104C15.6378 14.779 16.372 13.0024 16.9933 11.1747C17.6142 9.34779 18.1316 7.44221 18.3808 5.85846C18.5052 5.06862 18.5667 4.3351 18.5325 3.72068C18.5001 3.13801 18.3759 2.52592 17.9979 2.11885Z" fill="#E2E8F0"/>
</g>
</svg>
