<svg width="14" height="14" viewBox="0 0 14 14" fill="none" xmlns="http://www.w3.org/2000/svg">
<path fill-rule="evenodd" clip-rule="evenodd" d="M0.729248 7.36457C0.729248 6.43835 1.45679 5.6875 2.35425 5.6875C3.55087 5.6875 4.52092 6.68866 4.52092 7.92363V10.1597C4.52092 11.3947 3.55087 12.3958 2.35425 12.3958C1.45679 12.3958 0.729248 11.6449 0.729248 10.7187V7.36457ZM2.35425 6.80556C2.05509 6.80556 1.81258 7.05587 1.81258 7.36457V10.7187C1.81258 11.0275 2.05509 11.2778 2.35425 11.2778C2.95256 11.2778 3.43758 10.7772 3.43758 10.1597V7.92363C3.43758 7.30612 2.95256 6.80556 2.35425 6.80556Z" fill="#94A3B8"/>
<path d="M7.466 1.85785C7.8923 1.48685 8.54721 1.5266 8.92282 1.95158C8.98891 2.03432 9.14098 2.23575 9.22067 2.37954C9.58799 2.98643 9.69993 3.70928 9.53112 4.39607C9.51222 4.47283 9.48818 4.55044 9.45126 4.66979L9.29177 5.18471C9.22557 5.39855 9.18555 5.52952 9.16508 5.62756C9.14979 5.68163 9.15738 5.79145 9.30998 5.79815C9.41503 5.80752 9.82658 5.80793 10.0562 5.80793C10.7779 5.80792 11.3639 5.80791 11.8117 5.86717C12.2696 5.92777 12.6852 6.06153 12.9683 6.41638C13.0242 6.48643 13.074 6.56104 13.1172 6.6395C13.3386 7.04183 13.2917 7.47518 13.1583 7.9114C13.0287 8.33583 12.7859 8.8585 12.4885 9.49877C12.2125 10.093 11.9676 10.6205 11.7483 10.9904C11.5215 11.373 11.279 11.6738 10.9438 11.9026C10.5511 12.1707 10.0276 12.3108 9.57947 12.354C9.14489 12.3958 8.61114 12.3958 7.94165 12.3958C7.13426 12.3958 6.13349 12.3958 5.62355 12.3294C5.09582 12.2606 4.65128 12.1139 4.29693 11.7705C3.94064 11.4253 3.78654 10.9891 3.71469 10.4712C3.64576 9.97447 3.64577 9.34342 3.64578 8.56339L3.64577 7.87932C3.64554 7.11048 3.64539 6.60806 3.82608 6.14209C4.00632 5.67733 4.34636 5.301 4.86913 4.72245L7.32507 2.00294C7.37144 1.95145 7.41887 1.89886 7.466 1.85785Z" fill="#94A3B8"/>
</svg>
