<svg width="24" height="24" viewBox="0 0 24 24" fill="none" xmlns="http://www.w3.org/2000/svg">
<g id="Frame">
<path id="Vector" d="M9.5 9.50009H7.5C5.15442 9.50009 3.98164 9.50009 3.17372 10.12C2.96572 10.2796 2.77954 10.4658 2.61994 10.6738C2 11.4817 2 12.6545 2 15.0001C2 17.3457 2 18.5185 2.61994 19.3264C2.77954 19.5344 2.96572 19.7206 3.17372 19.8802C3.98164 20.5001 5.15442 20.5001 7.5 20.5001H9.5C11.8456 20.5001 13.0184 20.5001 13.8263 19.8802C14.0343 19.7206 14.2205 19.5344 14.3801 19.3264C15 18.5185 15 17.3457 15 15.0001C15 12.6545 15 11.4817 14.3801 10.6738C14.2205 10.4658 14.0343 10.2796 13.8263 10.12C13.0184 9.50009 11.8456 9.50009 9.5 9.50009Z" stroke="#94A3B8" stroke-width="1.5"/>
<path id="Vector_2" d="M11.75 9.50009V6.75009C11.75 4.95516 10.2949 3.50009 8.5 3.50009C6.70507 3.50009 5.25 4.95516 5.25 6.75009V9.50009" stroke="#94A3B8" stroke-width="1.5" stroke-linecap="round"/>
<path id="Vector_3" d="M18 9.50009C18 9.9143 18.3358 10.2501 18.75 10.2501C19.1642 10.2501 19.5 9.9143 19.5 9.50009H18ZM17.0012 8.75034C16.5869 8.7497 16.2506 9.08496 16.25 9.49918C16.2494 9.91339 16.5846 10.2497 16.9988 10.2503L17.0012 8.75034ZM16.9988 19.7499C16.5846 19.7505 16.2494 20.0868 16.25 20.501C16.2506 20.9152 16.5869 21.2505 17.0012 21.2499L16.9988 19.7499ZM13.6534 3.20111C13.286 3.39255 13.1435 3.84552 13.3349 4.21283C13.5264 4.58015 13.9793 4.72273 14.3466 4.53128L13.6534 3.20111ZM21.25 15.0001C21.25 16.1903 21.2489 17.0202 21.1772 17.6558C21.1073 18.2763 20.9781 18.6182 20.785 18.8698L21.9751 19.783C22.4019 19.2267 22.5828 18.5782 22.6678 17.8239C22.7511 17.0847 22.75 16.1554 22.75 15.0001H21.25ZM20.785 18.8698C20.6653 19.0258 20.5257 19.1654 20.3697 19.2851L21.2829 20.4752C21.5429 20.2757 21.7756 20.043 21.9751 19.783L20.785 18.8698ZM22.75 15.0001C22.75 13.8448 22.7511 12.9155 22.6678 12.1763C22.5828 11.422 22.4019 10.7735 21.9751 10.2172L20.785 11.1304C20.9781 11.382 21.1073 11.7239 21.1772 12.3444C21.2489 12.98 21.25 13.8099 21.25 15.0001H22.75ZM20.3697 10.7151C20.5257 10.8348 20.6653 10.9744 20.785 11.1304L21.9751 10.2172C21.7756 9.95724 21.5429 9.72452 21.2829 9.52501L20.3697 10.7151ZM19.5 9.50009V6.75009H18V9.50009H19.5ZM19.5 6.75009C19.5 4.54095 17.7091 2.75009 15.5 2.75009V4.25009C16.8807 4.25009 18 5.36938 18 6.75009H19.5ZM16.9988 10.2503C18.0169 10.2519 18.7353 10.2644 19.288 10.3392C19.8256 10.4121 20.1364 10.5361 20.3697 10.7151L21.2829 9.52501C20.7678 9.12978 20.1737 8.9455 19.4894 8.8528C18.8202 8.76216 17.9996 8.75188 17.0012 8.75034L16.9988 10.2503ZM17.0012 21.2499C17.9996 21.2483 18.8202 21.238 19.4894 21.1474C20.1737 21.0547 20.7678 20.8704 21.2829 20.4752L20.3697 19.2851C20.1364 19.4641 19.8256 19.5881 19.288 19.661C18.7353 19.7358 18.0169 19.7483 16.9988 19.7499L17.0012 21.2499ZM14.3466 4.53128C14.6909 4.35185 15.0825 4.25009 15.5 4.25009V2.75009C14.8354 2.75009 14.2066 2.91276 13.6534 3.20111L14.3466 4.53128Z" fill="#94A3B8"/>
<path id="Vector_4" d="M6 15.0001C6 15.0001 7 15.5001 7.5 17.0001C7.5 17.0001 9 14.0001 11 13.0001" stroke="#94A3B8" stroke-width="1.5" stroke-linecap="round" stroke-linejoin="round"/>
</g>
</svg>
