<svg width="24" height="24" viewBox="0 0 24 24" fill="none" xmlns="http://www.w3.org/2000/svg">
<g id="Frame">
<path id="Vector" d="M14.9263 4.41112L8.27352 7.60461C7.76151 7.85038 7.21443 7.91196 6.65675 7.78702C6.29177 7.70526 6.10926 7.66438 5.9623 7.6476C4.13743 7.43921 3 8.88351 3 10.5444V11.4558C3 13.1167 4.13743 14.561 5.9623 14.3526C6.10926 14.3358 6.29178 14.2949 6.65675 14.2132C7.21443 14.0882 7.76151 14.1498 8.27352 14.3956L14.9263 17.5891C16.4534 18.3222 17.217 18.6887 18.0684 18.403C18.9197 18.1173 19.2119 17.5042 19.7964 16.2781C21.4012 12.9113 21.4012 9.08894 19.7964 5.72205C19.2119 4.49595 18.9197 3.8829 18.0684 3.59719C17.217 3.31149 16.4534 3.67803 14.9263 4.41112Z" stroke="#94A3B8" stroke-width="1.5" stroke-linecap="round" stroke-linejoin="round"/>
<path id="Vector_2" d="M13 17.0001V17.5001C13 18.7842 13 19.4262 12.776 19.7887C12.4773 20.272 11.9312 20.5451 11.3653 20.494C10.9409 20.4558 10.4273 20.0705 9.4 19.3001L8.2 18.4001C7.22253 17.667 7 17.2219 7 16.0001V14.5001" stroke="#94A3B8" stroke-width="1.5" stroke-linecap="round" stroke-linejoin="round"/>
<path id="Vector_3" d="M7.5 14.0001V8.00009" stroke="#94A3B8" stroke-width="1.5" stroke-linecap="round" stroke-linejoin="round"/>
</g>
</svg>
