<svg width="24" height="24" viewBox="0 0 24 24" fill="none" xmlns="http://www.w3.org/2000/svg">
<g id="Frame">
<path id="Vector" d="M12 16.5V14.5" stroke="#94A3B8" stroke-width="1.5" stroke-linecap="round"/>
<path id="Vector_2" d="M4.26781 18.8447C4.49269 20.515 5.87613 21.8235 7.55966 21.9009C8.97627 21.966 10.4153 22 12 22C13.5847 22 15.0237 21.966 16.4403 21.9009C18.1239 21.8235 19.5073 20.515 19.7322 18.8447C19.8789 17.7547 20 16.6376 20 15.5C20 14.3624 19.8789 13.2453 19.7322 12.1553C19.5073 10.485 18.1239 9.17652 16.4403 9.09912C15.0237 9.034 13.5847 9.00003 12 9.00003C10.4153 9.00003 8.97627 9.034 7.55966 9.09912C5.87613 9.17652 4.49269 10.485 4.26781 12.1553C4.12105 13.2453 4 14.3624 4 15.5C4 16.6376 4.12105 17.7547 4.26781 18.8447Z" stroke="#94A3B8" stroke-width="1.5"/>
<path id="Vector_3" d="M7.5 9.00003V6.50003C7.5 4.01475 9.51472 2.00003 12 2.00003C14.4853 2.00003 16.5 4.01475 16.5 6.50003V9.00003" stroke="#94A3B8" stroke-width="1.5" stroke-linecap="round" stroke-linejoin="round"/>
</g>
</svg>
