<svg width="24" height="24" viewBox="0 0 24 24" fill="none" xmlns="http://www.w3.org/2000/svg">
<path d="M14.9805 7.01562C14.9805 7.01562 15.4805 7.51562 15.9805 8.51562C15.9805 8.51562 17.5687 6.01562 18.9805 5.51562" stroke="#94A3B8" stroke-width="1.5" stroke-linecap="round" stroke-linejoin="round"/>
<path d="M9.99485 2.0214C7.49638 1.91562 5.56612 2.20344 5.56612 2.20344C4.34727 2.29059 2.01146 2.97391 2.01148 6.9646C2.0115 10.9214 1.98564 15.7994 2.01148 17.744C2.01148 18.9321 2.7471 21.7034 5.29326 21.8519C8.3881 22.0325 13.9627 22.0709 16.5204 21.8519C17.2051 21.8133 19.4846 21.2758 19.7731 18.7957C20.072 16.2264 20.0125 14.4408 20.0125 14.0158" stroke="#94A3B8" stroke-width="1.5" stroke-linecap="round" stroke-linejoin="round"/>
<path d="M22 7.01562C22 9.77704 19.7593 12.0157 16.9952 12.0157C14.2311 12.0157 11.9904 9.77704 11.9904 7.01562C11.9904 4.2542 14.2311 2.01562 16.9952 2.01562C19.7593 2.01562 22 4.2542 22 7.01562Z" stroke="#94A3B8" stroke-width="1.5" stroke-linecap="round"/>
<path d="M6.98047 13.0157H10.9804" stroke="#94A3B8" stroke-width="1.5" stroke-linecap="round"/>
<path d="M6.98047 17.0157H14.9804" stroke="#94A3B8" stroke-width="1.5" stroke-linecap="round"/>
</svg>
