
<svg width="24" height="24" viewBox="0 0 24 24" fill="none" xmlns="http://www.w3.org/2000/svg">
<g clip-path="url(#clip0_51_980)">
<path d="M9.1738 12.5653C9.13531 12.3726 7.80959 5.74402 7.76755 5.53397C7.70187 5.20533 7.41326 4.96875 7.07811 4.96875H5.67186C5.3367 4.96875 5.04809 5.20533 4.98242 5.53397C4.93972 5.74758 3.61264 12.3829 3.57617 12.5652C3.5 12.946 3.74698 13.3164 4.12775 13.3926C4.50851 13.4687 4.87897 13.2218 4.95509 12.841L5.40453 10.5938H7.34544L7.79487 12.841C7.87105 13.222 8.24164 13.4688 8.62222 13.3926C9.00298 13.3164 9.24997 12.946 9.1738 12.5653ZM5.68578 9.1875L6.24828 6.375H6.50169L7.06419 9.1875H5.68578Z" fill="black"/>
<path d="M20.4375 10.5938H18.3281V9.89062C18.3281 9.50231 18.0133 9.1875 17.625 9.1875C17.2367 9.1875 16.9219 9.50231 16.9219 9.89062V10.5938H14.8125C14.4242 10.5938 14.1094 10.9086 14.1094 11.2969C14.1094 11.6852 14.4242 12 14.8125 12H14.9827C15.3833 13.2943 15.9865 14.2878 16.6502 15.0839C16.11 15.5781 15.5633 15.9833 15.0764 16.3728C14.7732 16.6154 14.724 17.0579 14.9666 17.3611C15.2093 17.6645 15.6518 17.7134 15.9549 17.4709C16.4445 17.0791 17.0315 16.6438 17.625 16.0991C18.219 16.6442 18.807 17.0803 19.2951 17.4709C19.5983 17.7135 20.0408 17.6643 20.2834 17.3611C20.526 17.0579 20.4768 16.6154 20.1736 16.3728C19.6879 15.9842 19.1406 15.5785 18.5998 15.0839C19.2635 14.2878 19.8667 13.2943 20.2673 12H20.4375C20.8258 12 21.1406 11.6852 21.1406 11.2969C21.1406 10.9086 20.8258 10.5938 20.4375 10.5938ZM17.625 14.0505C17.1762 13.4871 16.7724 12.8146 16.468 11.9953H18.782C18.4776 12.8146 18.0738 13.4871 17.625 14.0505Z" fill="black"/>
<path d="M21.8906 4.26562H11.7468L11.4454 1.84772C11.3138 0.794344 10.4139 0 9.35236 0H2.10938C0.946266 0 0 0.946266 0 2.10938V17.625C0 18.7881 0.946266 19.7344 2.10938 19.7344H8.03827L8.33583 22.1523C8.46727 23.2035 9.36708 24 10.4289 24H21.8906C23.0537 24 24 23.0537 24 21.8906V6.375C24 5.21189 23.0537 4.26562 21.8906 4.26562ZM2.10938 18.3281C1.72167 18.3281 1.40625 18.0127 1.40625 17.625V2.10938C1.40625 1.72167 1.72167 1.40625 2.10938 1.40625H9.35236C9.70622 1.40625 10.0062 1.671 10.05 2.02191C10.1519 2.83922 11.9816 17.5174 12.0827 18.3281H2.10938ZM9.69019 21.6445L9.45511 19.7344H11.3415L9.69019 21.6445ZM22.5938 21.8906C22.5938 22.2783 22.2783 22.5938 21.8906 22.5938H10.7285L13.4052 19.4975C13.5422 19.343 13.6036 19.1378 13.5753 18.9339L11.9221 5.67188H21.8906C22.2783 5.67188 22.5938 5.9873 22.5938 6.375V21.8906Z" fill="black"/>
</g>
<defs>
<clipPath id="clip0_51_980">
<rect width="24" height="24" fill="white"/>
</clipPath>
</defs>
</svg>

