<svg width="24" height="24" viewBox="0 0 24 24" fill="none" xmlns="http://www.w3.org/2000/svg">
<path d="M18.9349 13.9453L18.2646 10.2968C17.9751 8.72099 17.8303 7.93306 17.257 7.46654C16.6837 7.00003 15.8602 7.00003 14.2132 7.00003H9.78685C8.1398 7.00003 7.31628 7.00003 6.74298 7.46654C6.16968 7.93306 6.02492 8.72099 5.73538 10.2968L5.06506 13.9453C4.46408 17.2162 4.16359 18.8517 5.08889 19.9259C6.01419 21 7.72355 21 11.1423 21H12.8577C16.2765 21 17.9858 21 18.9111 19.9259C19.8364 18.8517 19.5359 17.2162 18.9349 13.9453Z" stroke="#94A3B8" stroke-width="1.5" stroke-linecap="round"/>
<path d="M10.4375 16.6667V11.3333M12 11.3333V10M12 18V16.6667M10.4375 14H13.5625M13.5625 14C14.0803 14 14.5 14.4477 14.5 15V15.6667C14.5 16.219 14.0803 16.6667 13.5625 16.6667H9.5M13.5625 14C14.0803 14 14.5 13.5523 14.5 13V12.3333C14.5 11.781 14.0803 11.3333 13.5625 11.3333H9.5" stroke="#94A3B8" stroke-width="1.5" stroke-linecap="round" stroke-linejoin="round"/>
<path d="M21 11C21.1568 10.9209 21.2931 10.8212 21.4142 10.6955C22 10.0875 22 9.10896 22 7.15179C22 5.19463 22 4.21605 21.4142 3.60804C20.8284 3.00003 19.8856 3.00003 18 3.00003H6C4.11438 3.00003 3.17157 3.00003 2.58579 3.60804C2 4.21605 2 5.19463 2 7.15179C2 9.10896 2 10.0875 2.58579 10.6955C2.70688 10.8212 2.84322 10.9209 3 11" stroke="#94A3B8" stroke-width="1.5" stroke-linecap="round"/>
</svg>
