<svg width="24" height="24" viewBox="0 0 24 24" fill="none" xmlns="http://www.w3.org/2000/svg">
<path d="M2.52992 14.3941C2.31727 15.7472 3.268 16.6863 4.43205 17.1543C8.89481 18.9487 15.1052 18.9487 19.5679 17.1543C20.732 16.6863 21.6827 15.7472 21.4701 14.3941C21.3394 13.5626 20.6932 12.8702 20.2144 12.1941C19.5873 11.2976 19.525 10.3198 19.5249 9.27953C19.5249 5.25922 16.1559 2.00012 12 2.00012C7.84413 2.00012 4.47513 5.25922 4.47513 9.27953C4.47503 10.3198 4.41272 11.2976 3.78561 12.1941C3.30684 12.8702 2.66061 13.5626 2.52992 14.3941Z" stroke="#94A3B8" stroke-width="1.5" stroke-linecap="round" stroke-linejoin="round"/>
<path d="M9 21.0001C9.79613 21.622 10.8475 22.0001 12 22.0001C13.1525 22.0001 14.2039 21.622 15 21.0001" stroke="#94A3B8" stroke-width="1.5" stroke-linecap="round" stroke-linejoin="round"/>
</svg>
