<svg width="24" height="24" viewBox="0 0 24 24" fill="none" xmlns="http://www.w3.org/2000/svg">
<path d="M16.6106 17.6597L15.5 22.0001L18 21.0001L20.5 22.0001L19.5 17.5988M21 15.0001C21 16.657 19.6569 18.0001 18 18.0001C16.3431 18.0001 15 16.657 15 15.0001C15 13.3432 16.3431 12.0001 18 12.0001C19.6569 12.0001 21 13.3432 21 15.0001Z" stroke="#94A3B8" stroke-width="1.5" stroke-linecap="round" stroke-linejoin="round"/>
<path d="M20.0001 10.0001C20.0001 6.22885 20.0001 4.34324 18.8285 3.17166C17.657 2.00009 15.7713 2.00009 12.0001 2.00009H11.0002C7.22895 2.00009 5.34334 2.00009 4.17177 3.17165C3.0002 4.34321 3.00019 6.22881 3.00015 10L3.00012 14C3.00009 17.7713 3.00007 19.6569 4.17164 20.8285C5.34322 22.0001 7.22885 22.0001 11.0002 22.0001H13.0001" stroke="#94A3B8" stroke-width="1.5" stroke-linecap="round" stroke-linejoin="round"/>
<path d="M7.5 7.00009H15.5M7.5 12.0001H12" stroke="#94A3B8" stroke-width="1.5" stroke-linecap="round" stroke-linejoin="round"/>
</svg>
