<svg width="24" height="24" viewBox="0 0 24 24" fill="none" xmlns="http://www.w3.org/2000/svg">
<path d="M3.78879 9.03722C3.0814 9.42014 1.22668 10.202 2.35633 11.1804C2.90815 11.6583 3.52275 12.0001 4.29543 12.0001H8.70457C9.47725 12.0001 10.0918 11.6583 10.6437 11.1804C11.7733 10.202 9.9186 9.42014 9.21121 9.03722C7.55241 8.13929 5.44759 8.13929 3.78879 9.03722Z" stroke="#94A3B8" stroke-width="1.5"/>
<path d="M8.75 4.27285C8.75 5.52804 7.74264 6.54557 6.5 6.54557C5.25736 6.54557 4.25 5.52804 4.25 4.27285C4.25 3.01765 5.25736 2.00012 6.5 2.00012C7.74264 2.00012 8.75 3.01765 8.75 4.27285Z" stroke="#94A3B8" stroke-width="1.5"/>
<path d="M4 15.0001C4 18.3172 6.68286 21.0001 10 21.0001L9.14286 19.2858" stroke="#94A3B8" stroke-width="1.5" stroke-linecap="round" stroke-linejoin="round"/>
<path d="M20 9.00012C20 5.68298 17.3171 3.00012 14 3.00012L14.8571 4.71441" stroke="#94A3B8" stroke-width="1.5" stroke-linecap="round" stroke-linejoin="round"/>
<path d="M14.7888 19.0372C14.0814 19.4201 12.2267 20.202 13.3563 21.1804C13.9082 21.6583 14.5227 22.0001 15.2954 22.0001H19.7046C20.4773 22.0001 21.0918 21.6583 21.6437 21.1804C22.7733 20.202 20.9186 19.4201 20.2112 19.0372C18.5524 18.1393 16.4476 18.1393 14.7888 19.0372Z" stroke="#94A3B8" stroke-width="1.5"/>
<path d="M19.75 14.2728C19.75 15.528 18.7426 16.5456 17.5 16.5456C16.2574 16.5456 15.25 15.528 15.25 14.2728C15.25 13.0176 16.2574 12.0001 17.5 12.0001C18.7426 12.0001 19.75 13.0176 19.75 14.2728Z" stroke="#94A3B8" stroke-width="1.5"/>
</svg>
