<svg width="24" height="24" viewBox="0 0 24 24" fill="none" xmlns="http://www.w3.org/2000/svg">
<path d="M21.9999 8.87901C21.933 7.33693 21.7456 6.33304 21.2203 5.5389C20.9181 5.08202 20.5428 4.68465 20.1112 4.36474C18.9447 3.50006 17.2989 3.50006 14.0078 3.50006H9.993C6.70173 3.50006 5.05609 3.50006 3.88957 4.36474C3.458 4.68465 3.08262 5.08202 2.78042 5.5389C2.25521 6.33295 2.06771 7.33671 2.00078 8.87849C1.98933 9.14214 2.21643 9.34381 2.46526 9.34381C3.85104 9.34381 4.97444 10.5331 4.97444 12.0001C4.97444 13.4671 3.85104 14.6563 2.46526 14.6563C2.21643 14.6563 1.98933 14.858 2.00078 15.1217C2.06771 16.6635 2.25521 17.6672 2.78042 18.4613C3.08262 18.9181 3.458 19.3155 3.88957 19.6354C5.05609 20.5001 6.70173 20.5001 9.99301 20.5001H14.0078C17.2989 20.5001 18.9447 20.5001 20.1112 19.6354C20.5428 19.3155 20.9181 18.9181 21.2203 18.4613C21.7456 17.6671 21.933 16.6632 21.9999 15.1212V8.87901Z" stroke="#94A3B8" stroke-width="1.5" stroke-linejoin="round"/>
<path d="M13 12.0001H17" stroke="#94A3B8" stroke-width="1.5" stroke-linecap="round" stroke-linejoin="round"/>
<path d="M9 16.0001H17" stroke="#94A3B8" stroke-width="1.5" stroke-linecap="round" stroke-linejoin="round"/>
</svg>
