<svg width="24" height="24" viewBox="0 0 24 24" fill="none" xmlns="http://www.w3.org/2000/svg">
<g id="Frame">
<path id="Vector" d="M16.9767 19.5001C19.4017 17.8877 21 15.1306 21 12.0001C21 7.0295 16.9706 3.00006 12 3.00006C11.3126 3.00006 10.6432 3.07712 10 3.22308M16.9767 19.5001V16.0001M16.9767 19.5001H20.5M7 4.51561C4.58803 6.13013 3 8.87964 3 12.0001C3 16.9707 7.02944 21.0001 12 21.0001C12.6874 21.0001 13.3568 20.923 14 20.7771M7 4.51561V8.00006M7 4.51561H3.5" stroke="#94A3B8" stroke-width="1.5" stroke-linecap="round" stroke-linejoin="round"/>
<path id="Vector_2" d="M10.4375 14.6668V9.33339M12 9.33339V8.00006M12 16.0001V14.6668M10.4375 12.0001H13.5625M13.5625 12.0001C14.0803 12.0001 14.5 12.4478 14.5 13.0001V13.6668C14.5 14.2191 14.0803 14.6668 13.5625 14.6668H9.5M13.5625 12.0001C14.0803 12.0001 14.5 11.5524 14.5 11.0001V10.3334C14.5 9.78111 14.0803 9.33339 13.5625 9.33339H9.5" stroke="#94A3B8" stroke-width="1.5" stroke-linecap="round" stroke-linejoin="round"/>
</g>
</svg>
